# Blender v2.78 (sub 0) OBJ File: ''
# www.blender.org
o Cube_Cube.001
v  -1.000000 -1.000000 1.000000
v  -1.000000 1.000000 1.000000
v  -1.000000 -1.000000 -1.000000
v  -1.000000 1.000000 -1.000000
v  1.000000 -1.000000 1.000000
v  1.000000 1.000000 1.000000
v  1.000000 -1.000000 -1.000000
v  1.000000 1.000000 -1.000000
v  -1.000000 -1.000000 -1.000000
v  -1.000000 -1.000000 -1.000000
v  -1.000000 -1.000000 -1.000000
v  -1.000000 -1.000000 1.000000
v  -1.000000 -1.000000 1.000000
v  -1.000000 -1.000000 1.000000
v  -1.000000 -1.000000 1.000000
v  -1.000000 1.000000 1.000000
v  -1.000000 1.000000 1.000000
v  -1.000000 1.000000 1.000000
v  -1.000000 1.000000 -1.000000
v  -1.000000 1.000000 -1.000000
v  -1.000000 1.000000 -1.000000
v  -1.000000 1.000000 -1.000000
v  1.000000 -1.000000 -1.000000
v  1.000000 -1.000000 -1.000000
v  1.000000 -1.000000 -1.000000
v  1.000000 -1.000000 -1.000000
v  1.000000 1.000000 -1.000000
v  1.000000 1.000000 -1.000000
v  1.000000 1.000000 -1.000000
v  1.000000 -1.000000 1.000000
v  1.000000 -1.000000 1.000000
v  1.000000 -1.000000 1.000000
v  1.000000 1.000000 1.000000
v  1.000000 1.000000 1.000000
v  1.000000 1.000000 1.000000
v  1.000000 1.000000 1.000000
vt 0.9977 0.9940
vt 0.0009 -0.0017
vt 0.9976 -0.0014
vt -0.0010 0.9948
vt 0.9997 0.0002
vt 0.0009 -0.0017
vt -0.0019 0.9953
vt 0.9974 -0.0031
vt -0.0007 -0.0019
vt 0.9987 0.9974
vt -0.0004 -0.0014
vt 1.0013 -0.0051
vt 1.0013 0.9962
vt 0.0015 -0.0034
vt 0.0009 0.9983
vt -0.0010 -0.0052
vt 1.0006 0.9974
vt -0.0019 0.9973
vt 0.9997 0.9979
vt 0.0009 0.9967
vt 0.0009 -0.0017
vt 0.0009 0.9967
vt 1.0000 0.9992
vt 1.0003 0.0001
vt 0.0000 0.9953
vt 1.0006 0.9993
vt 0.9993 -0.0031
vt 0.9987 0.9954
vt -0.0003 0.9979
vt -0.0004 -0.0034
vt 1.0013 0.9942
vt 0.9974 -0.0031
vt 0.0015 -0.0073
vt 0.0009 -0.0052
vt 0.9977 -0.0041
vt 1.0006 0.9954
vn -1.0000 0.0000 0.0000
vn 0.0000 0.0000 -1.0000
vn 1.0000 0.0000 0.0000
vn 0.0000 0.0000 1.0000
vn 0.0000 -1.0000 0.0000
vn 0.0000 1.0000 0.0000
s 1
f 16/1/1 9/2/1 12/3/1
f 20/4/2 23/5/2 10/6/2
f 28/7/3 30/8/3 24/9/3
f 34/10/4 13/11/4 31/12/4
f 25/13/5 14/14/5 11/15/5
f 21/16/6 33/17/6 27/18/6
f 17/19/1 19/20/1 3/21/1
f 4/22/2 29/23/2 7/24/2
f 8/25/3 6/26/3 5/27/3
f 35/28/4 18/29/4 15/30/4
f 26/31/5 32/32/5 1/33/5
f 22/34/6 2/35/6 36/36/6
